<?xml version="1.0" standalone="no"?>
<!DOCTYPE svg PUBLIC "-//W3C//DTD SVG 20010904//EN"
 "http://www.w3.org/TR/2001/REC-SVG-20010904/DTD/svg10.dtd">
<svg version="1.0" xmlns="http://www.w3.org/2000/svg"
 width="260.000000pt" height="260.000000pt" viewBox="0 0 260.000000 260.000000"
 preserveAspectRatio="xMidYMid meet">
<metadata>
Created by potrace 1.14, written by Peter Selinger 2001-2017
</metadata>
<g transform="translate(0.000000,260.000000) scale(0.100000,-0.100000)"
fill="#000000" stroke="none">
<path d="M1295 2109 c-356 -47 -663 -292 -785 -628 -92 -251 -75 -520 48 -768
45 -91 129 -204 167 -222 24 -12 36 -11 87 3 211 59 560 316 923 680 314 314
449 521 402 612 -35 69 -236 213 -365 263 -144 55 -334 79 -477 60z m309 -174
c130 -34 251 -96 334 -171 l46 -41 -26 -45 c-70 -118 -297 -376 -452 -512
l-67 -59 -29 28 c-99 95 -262 -1 -227 -135 5 -19 15 -42 23 -51 8 -8 14 -18
14 -22 0 -20 -259 -197 -367 -250 l-65 -32 -24 30 c-40 50 -101 176 -124 255
-31 107 -37 263 -16 370 69 341 334 597 671 650 79 12 235 5 309 -15z"/>
<path d="M1363 1769 c-98 -48 -116 -173 -36 -250 32 -32 38 -34 103 -34 65 0
71 2 105 35 80 78 62 201 -39 249 -53 26 -80 26 -133 0z"/>
<path d="M814 1346 c-28 -28 -34 -42 -34 -76 0 -34 6 -48 34 -76 28 -28 42
-34 76 -34 34 0 48 6 76 34 28 28 34 42 34 76 0 34 -6 48 -34 76 -28 28 -42
34 -76 34 -34 0 -48 -6 -76 -34z"/>
</g>
</svg>
