<?xml version="1.0" standalone="no"?>
<!DOCTYPE svg PUBLIC "-//W3C//DTD SVG 20010904//EN"
 "http://www.w3.org/TR/2001/REC-SVG-20010904/DTD/svg10.dtd">
<svg version="1.0" xmlns="http://www.w3.org/2000/svg"
 width="260.000000pt" height="260.000000pt" viewBox="0 0 260.000000 260.000000"
 preserveAspectRatio="xMidYMid meet">
<metadata>
Created by potrace 1.11, written by Peter Selinger 2001-2013
</metadata>
<g transform="translate(0.000000,260.000000) scale(0.100000,-0.100000)"
fill="#000000" stroke="none">
<path d="M1257 2110 c-339 -61 -625 -295 -746 -610 -85 -221 -82 -506 8 -720
37 -88 107 -201 160 -259 l41 -44 57 5 c102 10 267 99 485 265 368 279 755
680 857 888 21 42 31 77 31 108 0 44 -4 50 -62 107 -114 111 -244 185 -415
236 -72 21 -113 27 -228 29 -77 2 -162 0 -188 -5z m340 -180 c133 -32 284
-111 352 -184 25 -26 25 -27 7 -59 -63 -111 -332 -415 -467 -528 l-50 -42 -22
21 c-70 65 -176 51 -228 -30 -25 -41 -21 -117 8 -156 l20 -27 -61 -46 c-139
-104 -328 -219 -361 -219 -17 0 -78 93 -112 168 -91 205 -88 457 7 661 84 178
246 332 428 406 139 57 331 71 479 35z"/>
<path d="M1347 1768 c-73 -43 -99 -160 -50 -226 38 -51 70 -67 133 -67 90 0
149 53 157 142 13 131 -125 217 -240 151z"/>
<path d="M845 1381 c-58 -25 -90 -109 -63 -161 7 -13 29 -35 48 -48 114 -78
241 86 141 182 -31 30 -91 42 -126 27z"/>
</g>
</svg>
